<?xml version="1.0" standalone="no"?>
<!DOCTYPE svg PUBLIC "-//W3C//DTD SVG 20010904//EN"
 "http://www.w3.org/TR/2001/REC-SVG-20010904/DTD/svg10.dtd">
<svg version="1.0" xmlns="http://www.w3.org/2000/svg"
 width="700.000000pt" height="700.000000pt" viewBox="0 0 700.000000 700.000000"
 preserveAspectRatio="xMidYMid meet">
<metadata>
Created by potrace 1.14, written by Peter Selinger 2001-2017
</metadata>
<g transform="translate(0.000000,700.000000) scale(0.100000,-0.100000)"
fill="#000000" stroke="none">
<path d="M3256 6883 c-1 -1 -44 -4 -96 -7 -52 -2 -117 -10 -145 -16 -27 -6
-72 -14 -100 -16 -27 -2 -56 -7 -64 -9 -8 -3 -44 -8 -80 -11 -36 -4 -74 -11
-84 -16 -10 -5 -77 -23 -150 -39 -72 -16 -169 -45 -216 -63 -48 -19 -122 -47
-166 -62 -84 -28 -364 -168 -499 -248 -106 -64 -239 -153 -331 -223 -266 -203
-436 -375 -628 -635 -294 -398 -485 -780 -592 -1183 -29 -108 -67 -354 -82
-530 -10 -118 -10 -488 0 -590 5 -44 9 -87 9 -95 3 -109 135 -648 188 -765 5
-11 19 -45 31 -75 19 -50 128 -274 149 -310 5 -8 28 -46 51 -85 94 -157 232
-355 358 -515 42 -52 78 -97 81 -100 3 -3 34 -39 70 -80 228 -262 648 -592
895 -702 84 -38 270 -112 395 -158 89 -32 156 -49 330 -84 14 -3 68 -14 120
-25 52 -10 158 -22 235 -25 77 -4 160 -9 185 -12 131 -15 769 -27 830 -15 25
5 65 12 90 15 43 6 180 30 226 40 12 2 38 7 58 10 19 3 55 10 78 15 24 6 66
13 93 16 78 10 121 21 260 66 154 49 364 130 490 188 296 138 584 364 875 690
41 46 80 89 85 95 42 44 182 230 243 321 73 110 206 365 274 525 106 249 191
575 224 855 3 33 8 69 10 79 23 127 23 607 0 746 -2 14 -7 54 -11 90 -4 36 -9
74 -10 85 -2 11 -6 38 -10 60 -3 22 -8 51 -11 65 -3 14 -8 34 -10 45 -4 20
-27 126 -29 135 -11 41 -35 120 -76 244 -27 83 -49 158 -49 167 0 22 -246 509
-293 579 -43 65 -94 125 -203 240 -140 146 -188 194 -224 225 -19 17 -60 59
-90 95 -181 215 -370 377 -586 502 -95 56 -452 223 -528 247 -37 13 -105 40
-150 61 -73 34 -192 70 -271 84 -16 3 -57 11 -90 19 -33 8 -116 20 -185 26
-122 12 -310 36 -360 46 -40 8 -507 25 -514 18z"/>
</g>
</svg>
