<svg
  xmlns="http://www.w3.org/2000/svg"
  viewBox="0 0 511.999 511.999"
  style="enable-background: new 0 0 511.999 511.999"
  xml:space="preserve"
>
  <path style="fill:#901632" d="m378.178 186.023-32.513-32.229-118.141.518.285 64.744 118.139-.519z"/>

  <path transform="rotate(-135.251 380.917 120.4)" style="fill:#ff9494" d="M336.662 88.026h88.51v64.747h-88.51z"/>
  <path style="fill:#dc3023" d="m431.016 247.649 61.471-62.013-45.982-45.579-119.153 120.204 45.982 45.579 26.164-26.396a8.082 8.082 0 0 1 11.43-.051l20.138-20.315a8.08 8.08 0 0 1-.05-11.429z"/>
  <path d="M511.994 185.434c0-.039.005-.077.005-.114a8.092 8.092 0 0 0-2.392-5.705L377.921 49.082a8.082 8.082 0 0 0-11.43.051l-56.96 57.463a8.082 8.082 0 0 0 .05 11.43l19.848 19.674-110.057.484a8.082 8.082 0 0 0-8.047 8.118l.356 80.909a8.083 8.083 0 0 0 8.083 8.047h.037l110.057-.484-19.674 19.848a8.082 8.082 0 0 0 .051 11.43l57.463 56.961a8.053 8.053 0 0 0 5.69 2.342c2.08 0 4.16-.799 5.741-2.392l31.855-32.135a8.081 8.081 0 0 0-.051-11.43 8.08 8.08 0 0 0-11.43.051l-26.164 26.396-45.982-45.579 119.148-120.208 45.982 45.579-61.471 62.013a8.081 8.081 0 0 0 .051 11.43 8.08 8.08 0 0 0 11.43-.051l67.161-67.754a8.082 8.082 0 0 0 2.342-5.726c0-.037-.005-.076-.006-.115zm-122.436-10.892L326.7 112.235l45.579-45.981 62.858 62.307-45.579 45.981zm-162.034-20.23 118.141-.519 32.514 32.229-32.23 32.515-118.139.519-.286-64.744z"/>
  <path style="fill:#004d40" d="m284.192 292.939-118.141.52-32.229 32.514 32.515 32.231 118.139-.52z"/>
  <path d="M292.239 276.74h-.037l-110.057.484 19.674-19.848a8.081 8.081 0 0 0-.051-11.43l-57.463-56.96a8.08 8.08 0 0 0-11.43.051l-31.855 32.135a8.081 8.081 0 0 0 .051 11.43 8.08 8.08 0 0 0 11.43-.051l26.164-26.396 45.982 45.579L65.495 371.941l-45.982-45.579 61.471-62.013a8.081 8.081 0 0 0-.051-11.43 8.08 8.08 0 0 0-11.43.051L2.342 320.723A8.086 8.086 0 0 0 0 326.449c0 .039.005.077.006.115 0 .039-.005.077-.005.114a8.088 8.088 0 0 0 2.392 5.705l131.685 130.534a8.053 8.053 0 0 0 5.69 2.342c2.08 0 4.16-.799 5.741-2.392l56.96-57.463a8.082 8.082 0 0 0-.05-11.431L182.571 374.3l110.057-.484a8.08 8.08 0 0 0 8.047-8.118l-.356-80.909a8.08 8.08 0 0 0-8.08-8.049zM76.861 383.435l45.58-45.982 62.858 62.307-45.579 45.982-62.859-62.307zm56.961-57.462 32.23-32.515 118.139-.519.285 64.745-118.139.519-32.515-32.23z"/>
  <path transform="rotate(134.749 131.074 391.6)" style="fill:#b2dfdb" d="M98.701 347.344h64.747v88.51H98.701z"/>
  <path style="fill:#009688" d="m80.984 264.347-61.47 62.013 45.982 45.579 119.153-120.205-45.982-45.579-26.164 26.396a8.083 8.083 0 0 1-11.43.051l-20.139 20.315a8.082 8.082 0 0 1 .05 11.43z"/>
</svg>
